<?xml version="1.0" encoding="UTF-8"?>
<svg id="Capa_2" data-name="Capa 2" xmlns="http://www.w3.org/2000/svg" viewBox="0 0 29.04 29.04">
  <defs>
    <style>
      .cls-1 {
        fill: #fff;
      }
    </style>
  </defs>
  <g id="Capa_2-2" data-name="Capa 2">
    <g>
      <path class="cls-1" d="M14.71,10.35c-2.3,0-4.17,1.86-4.17,4.16,0,2.3,1.86,4.17,4.16,4.17,2.3,0,4.17-1.86,4.17-4.16,0-2.3-1.86-4.17-4.16-4.17ZM14.69,17.21c-1.49-.01-2.68-1.23-2.67-2.72.01-1.49,1.23-2.68,2.72-2.67,1.49.01,2.68,1.23,2.67,2.72-.01,1.49-1.23,2.68-2.72,2.67ZM19.05,9.22c-.54,0-.98.43-.98.97,0,.54.43.98.97.98.54,0,.98-.43.98-.97,0-.54-.44-.98-.97-.98ZM19.05,9.22c-.54,0-.98.43-.98.97,0,.54.43.98.97.98.54,0,.98-.43.98-.97,0-.54-.44-.98-.97-.98ZM14.71,10.35c-2.3,0-4.17,1.86-4.17,4.16,0,2.3,1.86,4.17,4.16,4.17,2.3,0,4.17-1.86,4.17-4.16,0-2.3-1.86-4.17-4.16-4.17ZM14.69,17.21c-1.49-.01-2.68-1.23-2.67-2.72.01-1.49,1.23-2.68,2.72-2.67,1.49.01,2.68,1.23,2.67,2.72-.01,1.49-1.23,2.68-2.72,2.67ZM22.7,10.47c-.11-1.07-.52-2.01-1.31-2.77-.83-.8-1.86-1.15-2.98-1.21-1.91-.1-6.44-.17-8.04.09-1.82.3-3.01,1.36-3.52,3.16-.39,1.38-.31,7.75-.08,9.12.31,1.87,1.41,3.07,3.26,3.54,1.28.33,7.58.29,8.99.06,1.87-.3,3.07-1.4,3.56-3.25.37-1.42.24-7.46.11-8.74ZM21.21,18.59c-.22,1.42-1.16,2.3-2.59,2.45-1.31.14-7.16.22-8.38-.12-1.16-.33-1.83-1.13-2.02-2.3-.18-1.12-.23-6.7,0-8.2.21-1.41,1.16-2.28,2.58-2.44,1.44-.16,6.62-.18,8,.03,1.42.22,2.29,1.16,2.45,2.59.15,1.33.19,6.54-.03,7.98ZM19.05,9.22c-.54,0-.98.43-.98.97,0,.54.43.98.97.98.54,0,.98-.43.98-.97,0-.54-.44-.98-.97-.98ZM14.71,10.35c-2.3,0-4.17,1.86-4.17,4.16,0,2.3,1.86,4.17,4.16,4.17,2.3,0,4.17-1.86,4.17-4.16,0-2.3-1.86-4.17-4.16-4.17ZM14.69,17.21c-1.49-.01-2.68-1.23-2.67-2.72.01-1.49,1.23-2.68,2.72-2.67,1.49.01,2.68,1.23,2.67,2.72-.01,1.49-1.23,2.68-2.72,2.67ZM14.71,10.35c-2.3,0-4.17,1.86-4.17,4.16,0,2.3,1.86,4.17,4.16,4.17,2.3,0,4.17-1.86,4.17-4.16,0-2.3-1.86-4.17-4.16-4.17ZM14.69,17.21c-1.49-.01-2.68-1.23-2.67-2.72.01-1.49,1.23-2.68,2.72-2.67,1.49.01,2.68,1.23,2.67,2.72-.01,1.49-1.23,2.68-2.72,2.67ZM19.05,9.22c-.54,0-.98.43-.98.97,0,.54.43.98.97.98.54,0,.98-.43.98-.97,0-.54-.44-.98-.97-.98ZM14.71,10.35c-2.3,0-4.17,1.86-4.17,4.16,0,2.3,1.86,4.17,4.16,4.17,2.3,0,4.17-1.86,4.17-4.16,0-2.3-1.86-4.17-4.16-4.17ZM14.69,17.21c-1.49-.01-2.68-1.23-2.67-2.72.01-1.49,1.23-2.68,2.72-2.67,1.49.01,2.68,1.23,2.67,2.72-.01,1.49-1.23,2.68-2.72,2.67ZM19.05,9.22c-.54,0-.98.43-.98.97,0,.54.43.98.97.98.54,0,.98-.43.98-.97,0-.54-.44-.98-.97-.98Z"/>
      <path class="cls-1" d="M14.52,29.04C6.51,29.04,0,22.52,0,14.52S6.51,0,14.52,0s14.52,6.51,14.52,14.52-6.51,14.52-14.52,14.52ZM14.52,1.52C7.35,1.52,1.52,7.35,1.52,14.52s5.83,13,13,13,13-5.83,13-13S21.69,1.52,14.52,1.52Z"/>
    </g>
  </g>
</svg>