<?xml version="1.0" encoding="UTF-8"?>
<svg id="Capa_2" data-name="Capa 2" xmlns="http://www.w3.org/2000/svg" viewBox="0 0 56.99 65.03">
  <defs>
    <style>
      .cls-1 {
        fill: #1e2445;
      }
    </style>
  </defs>
  <g id="Capa_9" data-name="Capa 9">
    <g>
      <path class="cls-1" d="M28.5,65.03c-.21,0-.42-.05-.62-.14L.8,51.77C.31,51.54,0,51.04,0,50.5V14.96c0-.55.32-1.05.81-1.28L29.58.14c.4-.2.88-.18,1.27.03l25.38,13.54c.46.25.75.73.75,1.25v34.27c0,.52-.29,1.01-.75,1.25l-27.07,14.38c-.21.11-.44.17-.67.17ZM2.84,49.61l25.63,12.41,25.69-13.65V15.81L30.15,3.01,2.84,15.86v33.75Z"/>
      <path class="cls-1" d="M28.5,30.55c-.23,0-.45-.05-.66-.16L.76,16.22c-.7-.37-.96-1.22-.6-1.92.37-.7,1.23-.96,1.92-.6l26.42,13.83,26.42-13.83c.69-.36,1.55-.09,1.92.6.36.69.09,1.55-.6,1.92l-27.07,14.17c-.21.11-.43.16-.66.16Z"/>
      <path class="cls-1" d="M28.5,65.03c-.78,0-1.42-.63-1.42-1.42V29.13c0-.78.63-1.42,1.42-1.42s1.42.63,1.42,1.42v34.48c0,.78-.63,1.42-1.42,1.42Z"/>
      <path class="cls-1" d="M43,35.21c-.78,0-1.42-.63-1.42-1.42v-11.41l-24.84-13.7c-.69-.38-.94-1.24-.56-1.93.38-.69,1.24-.95,1.93-.56l25.58,14.11c.45.25.73.73.73,1.24v12.25c0,.78-.63,1.42-1.42,1.42Z"/>
      <path class="cls-1" d="M15.12,23.49c-.52,0-1.01-.28-1.26-.77-.36-.7-.08-1.55.62-1.91l27.01-13.77c.7-.35,1.56-.08,1.91.62.36.7.08,1.55-.62,1.91l-27.01,13.77c-.21.11-.43.16-.65.16Z"/>
    </g>
  </g>
</svg>