<?xml version="1.0" encoding="UTF-8"?>
<svg id="Capa_2" data-name="Capa 2" xmlns="http://www.w3.org/2000/svg" viewBox="0 0 68.19 63.26">
  <defs>
    <style>
      .cls-1 {
        fill: #1e2445;
      }
    </style>
  </defs>
  <g id="Capa_19" data-name="Capa 19">
    <g>
      <path class="cls-1" d="M38.58,63.26H1.26c-.7,0-1.26-.6-1.26-1.33V1.33C0,.6.56,0,1.26,0h37.32c.7,0,1.26.6,1.26,1.33v60.59c0,.74-.56,1.33-1.26,1.33ZM2.52,60.59h34.8V2.67H2.52v57.92Z"/>
      <path class="cls-1" d="M66.93,63.26h-28.35c-.7,0-1.26-.6-1.26-1.33V23.91c0-.74.56-1.33,1.26-1.33h28.35c.7,0,1.26.6,1.26,1.33v38.02c0,.74-.56,1.33-1.26,1.33ZM39.84,60.59h25.83V25.24h-25.83v35.35Z"/>
      <path class="cls-1" d="M14.94,12.92h-7.29c-.62,0-1.13-.54-1.13-1.19v-4.6c0-.66.5-1.19,1.13-1.19h7.29c.62,0,1.13.54,1.13,1.19v4.6c0,.66-.5,1.19-1.13,1.19ZM8.78,10.54h5.03v-2.21h-5.03v2.21Z"/>
      <path class="cls-1" d="M14.94,21.98h-7.29c-.62,0-1.13-.54-1.13-1.19v-4.6c0-.66.5-1.19,1.13-1.19h7.29c.62,0,1.13.54,1.13,1.19v4.6c0,.66-.5,1.19-1.13,1.19ZM8.78,19.59h5.03v-2.21h-5.03v2.21Z"/>
      <path class="cls-1" d="M14.94,31.19h-7.29c-.62,0-1.13-.54-1.13-1.19v-4.6c0-.66.5-1.19,1.13-1.19h7.29c.62,0,1.13.54,1.13,1.19v4.6c0,.66-.5,1.19-1.13,1.19ZM8.78,28.8h5.03v-2.21h-5.03v2.21Z"/>
      <path class="cls-1" d="M14.94,40.25h-7.29c-.62,0-1.13-.54-1.13-1.19v-4.6c0-.66.5-1.19,1.13-1.19h7.29c.62,0,1.13.54,1.13,1.19v4.6c0,.66-.5,1.19-1.13,1.19ZM8.78,37.86h5.03v-2.21h-5.03v2.21Z"/>
      <path class="cls-1" d="M14.94,49.31h-7.29c-.62,0-1.13-.54-1.13-1.19v-4.6c0-.66.5-1.19,1.13-1.19h7.29c.62,0,1.13.54,1.13,1.19v4.6c0,.66-.5,1.19-1.13,1.19ZM8.78,46.92h5.03v-2.21h-5.03v2.21Z"/>
      <path class="cls-1" d="M14.94,58.36h-7.29c-.62,0-1.13-.54-1.13-1.19v-4.6c0-.66.5-1.19,1.13-1.19h7.29c.62,0,1.13.54,1.13,1.19v4.6c0,.66-.5,1.19-1.13,1.19ZM8.78,55.98h5.03v-2.21h-5.03v2.21Z"/>
      <path class="cls-1" d="M32.31,12.92h-7.29c-.62,0-1.13-.54-1.13-1.19v-4.6c0-.66.5-1.19,1.13-1.19h7.29c.62,0,1.13.54,1.13,1.19v4.6c0,.66-.5,1.19-1.13,1.19ZM26.15,10.54h5.03v-2.21h-5.03v2.21Z"/>
      <path class="cls-1" d="M32.31,21.98h-7.29c-.62,0-1.13-.54-1.13-1.19v-4.6c0-.66.5-1.19,1.13-1.19h7.29c.62,0,1.13.54,1.13,1.19v4.6c0,.66-.5,1.19-1.13,1.19ZM26.15,19.59h5.03v-2.21h-5.03v2.21Z"/>
      <path class="cls-1" d="M32.31,31.19h-7.29c-.62,0-1.13-.54-1.13-1.19v-4.6c0-.66.5-1.19,1.13-1.19h7.29c.62,0,1.13.54,1.13,1.19v4.6c0,.66-.5,1.19-1.13,1.19ZM26.15,28.8h5.03v-2.21h-5.03v2.21Z"/>
      <path class="cls-1" d="M50.73,35.72h-7.29c-.62,0-1.13-.54-1.13-1.19v-4.6c0-.66.5-1.19,1.13-1.19h7.29c.62,0,1.13.54,1.13,1.19v4.6c0,.66-.5,1.19-1.13,1.19ZM44.57,33.33h5.03v-2.21h-5.03v2.21Z"/>
      <path class="cls-1" d="M62.64,35.72h-7.29c-.62,0-1.13-.54-1.13-1.19v-4.6c0-.66.5-1.19,1.13-1.19h7.29c.62,0,1.13.54,1.13,1.19v4.6c0,.66-.5,1.19-1.13,1.19ZM56.48,33.33h5.03v-2.21h-5.03v2.21Z"/>
      <path class="cls-1" d="M50.73,44.78h-7.29c-.62,0-1.13-.54-1.13-1.19v-4.6c0-.66.5-1.19,1.13-1.19h7.29c.62,0,1.13.54,1.13,1.19v4.6c0,.66-.5,1.19-1.13,1.19ZM44.57,42.39h5.03v-2.21h-5.03v2.21Z"/>
      <path class="cls-1" d="M50.73,53.98h-7.29c-.62,0-1.13-.54-1.13-1.19v-4.6c0-.66.5-1.19,1.13-1.19h7.29c.62,0,1.13.54,1.13,1.19v4.6c0,.66-.5,1.19-1.13,1.19ZM44.57,51.59h5.03v-2.21h-5.03v2.21Z"/>
      <path class="cls-1" d="M32.31,40.25h-7.29c-.62,0-1.13-.54-1.13-1.19v-4.6c0-.66.5-1.19,1.13-1.19h7.29c.62,0,1.13.54,1.13,1.19v4.6c0,.66-.5,1.19-1.13,1.19ZM26.15,37.86h5.03v-2.21h-5.03v2.21Z"/>
      <path class="cls-1" d="M32.31,49.31h-7.29c-.62,0-1.13-.54-1.13-1.19v-4.6c0-.66.5-1.19,1.13-1.19h7.29c.62,0,1.13.54,1.13,1.19v4.6c0,.66-.5,1.19-1.13,1.19ZM26.15,46.92h5.03v-2.21h-5.03v2.21Z"/>
      <path class="cls-1" d="M32.31,58.36h-7.29c-.62,0-1.13-.54-1.13-1.19v-4.6c0-.66.5-1.19,1.13-1.19h7.29c.62,0,1.13.54,1.13,1.19v4.6c0,.66-.5,1.19-1.13,1.19ZM26.15,55.98h5.03v-2.21h-5.03v2.21Z"/>
      <path class="cls-1" d="M62.58,63.12h-7.29c-.62,0-1.13-.54-1.13-1.19v-22.87c0-.66.5-1.19,1.13-1.19h7.29c.62,0,1.13.54,1.13,1.19v22.87c0,.66-.5,1.19-1.13,1.19ZM56.42,60.73h5.03v-20.48h-5.03v20.48Z"/>
    </g>
  </g>
</svg>